<svg xmlns="http://www.w3.org/2000/svg" width="32.835" height="12.945" viewBox="0 0 32.835 12.945">
    <defs>
        <style>
            .cls-1{fill:none;stroke:#7cb342;stroke-miterlimit:10}
        </style>
    </defs>
    <g id="Group_202" data-name="Group 202" transform="translate(-1844.057 -421.556)">
        <path id="Path_24" d="M1872.461 432.253s3.239-.337 3.686-.785.111-2.578.111-2.578c-1.228-2.13-3.127-2.466-8.376-3.251-2.22-.332-2.568-2.8-6.253-3.362-2.518-.383-4.467-.449-9.045.336-4.306.738-5.7 2.354-6.589 2.578s-.67 1.346-.67 2.018a1.547 1.547 0 0 1-.67 1.122s-.224-.225 0 1.345 3.685 1.906 3.685 1.906" class="cls-1" data-name="Path 24"/>
        <path id="Path_25" d="M1867.808 425.655l-15.007-.219a3.107 3.107 0 0 1-3.015-1.966" class="cls-1" data-name="Path 25" transform="translate(.279)"/>
        <circle id="Ellipse_17" cx="2.512" cy="2.512" r="2.512" class="cls-1" data-name="Ellipse 17" transform="translate(1848.694 428.976)"/>
        <circle id="Ellipse_18" cx="2.512" cy="2.512" r="2.512" class="cls-1" data-name="Ellipse 18" transform="translate(1867.086 428.976)"/>
        <path id="Line_29" d="M0 0h12.561" class="cls-1" data-name="Line 29" transform="translate(1854.063 431.98)"/>
        <path id="Line_30" d="M0 0v3.154" class="cls-1" data-name="Line 30" transform="translate(1856.488 422.283)"/>
    </g>
</svg>
