<svg xmlns="http://www.w3.org/2000/svg" width="25.218" height="16.016" viewBox="0 0 25.218 16.016">
    <defs>
        <style>
            .cls-1{fill:none;stroke:#333;stroke-linecap:round;stroke-miterlimit:10}
        </style>
    </defs>
    <g id="Group_37" data-name="Group 37" transform="translate(-1844.056 -388.844)">
        <g id="Group_36" data-name="Group 36" transform="translate(1844.556 389.359)">
            <path id="Path_26" d="M1864.3 395.781s-1.451-.162-3.062 1.793-2.578 3.422-4.351 3.422-3.061-.977-4.673-3.259-5.478-1.956-5.478-1.956-1.612-.488-1.612-1.3 1.128-1.3 2.094-1.3 4.673.815 5.962.815a7.835 7.835 0 0 0 3.867-1.3 7.244 7.244 0 0 1 2.579-1.141c.725-.081.644-1.466.644-1.466s0-.978.806-.652a13.316 13.316 0 0 1 3.062 2.933c.321.489 1.127 1.956.966 2.608s-.159.803-.804.803z" class="cls-1" data-name="Path 26" transform="translate(-1844.556 -389.359)"/>
            <circle id="Ellipse_19" cx="3.585" cy="3.585" r="3.585" class="cls-1" data-name="Ellipse 19" transform="translate(17.047 7.83)"/>
            <circle id="Ellipse_20" cx="3.585" cy="3.585" r="3.585" class="cls-1" data-name="Ellipse 20" transform="translate(0 7.83)"/>
            <path id="Line_31" d="M0 0l2.174 1.571" class="cls-1" data-name="Line 31" transform="translate(12.5 .5)"/>
            <path id="Path_27" d="M1858.128 392.21s2.836 2.836 6.309 1.371" class="cls-1" data-name="Path 27" transform="translate(-1844.725 -389.389)"/>
            <path id="Line_32" d="M0 0l3.132 3.958" class="cls-1" data-name="Line 32" transform="translate(17.5 7.5)"/>
            <path id="Line_33" d="M0 1.141L2.77 0" class="cls-1" data-name="Line 33" transform="translate(11.288 5.793)"/>
            <path id="Line_34" d="M0 1.141L2.77 0" class="cls-1" data-name="Line 34" transform="translate(11.288 7.245)"/>
        </g>
        <path id="Line_35" d="M0 4.539L3.556 0" class="cls-1" data-name="Line 35" transform="translate(1847.5 396.859)"/>
    </g>
</svg>
