<svg xmlns="http://www.w3.org/2000/svg" width="83.123" height="23" viewBox="0 0 83.123 23">
    <defs>
        <style>
            .cls-1{fill:none;stroke:#333;stroke-miterlimit:10}
        </style>
    </defs>
    <g id="Group_30" data-name="Group 30" transform="translate(-1843.927 -542.5)">
        <path id="Line_20" d="M3.948 0H0" class="cls-1" data-name="Line 20" transform="translate(1867.336 562.129)"/>
        <path id="Line_21" d="M6.102 0H0" class="cls-1" data-name="Line 21" transform="translate(1866.257 559.59)"/>
        <path id="Path_6" d="M1846.169 559.421s-1.256-.18-1.256.538a5.286 5.286 0 0 1-.539 1.8" class="cls-1" data-name="Path 6" transform="translate(0 .106)"/>
        <circle id="Ellipse_1" cx="2.602" cy="2.602" r="2.602" class="cls-1" data-name="Ellipse 1" transform="translate(1872.389 559.796)"/>
        <circle id="Ellipse_2" cx="2.602" cy="2.602" r="2.602" class="cls-1" data-name="Ellipse 2" transform="translate(1861.025 559.796)"/>
        <circle id="Ellipse_3" cx="2.602" cy="2.602" r="2.602" class="cls-1" data-name="Ellipse 3" transform="translate(1854.209 559.796)"/>
        <circle id="Ellipse_4" cx="2.602" cy="2.602" r="2.602" class="cls-1" data-name="Ellipse 4" transform="translate(1847.479 559.796)"/>
        <path id="Path_7" d="M1897.526 555.562v-11.485c0-.6-.645-1.077-1.442-1.077h-49.025c-.8 0-1.442.482-1.442 1.077v14.4" class="cls-1" data-name="Path 7"/>
        <g id="Group_29" data-name="Group 29" transform="translate(1885.507 543.157)">
            <path id="Path_8" d="M1885.112 559.686l1.671-2.415h13.186l.186-9.471s-.186-1.486 1.114-1.3a22.244 22.244 0 0 0 3.714.557c1.486 0 4.917.474 4.917.474" class="cls-1" data-name="Path 8" transform="translate(-1885.112 -543.114)"/>
            <path id="Path_9" d="M1907.212 543.157l2.6 2.054v16.994h5.314s-.087-4.482 4.374-4.482c5 0 4.5 4.482 4.5 4.482h2.155v-3.922l-1.672-2.054-.371-1.494-1.3-1.307h-6.312s-.182-5.285-6.6-5.872" class="cls-1" data-name="Path 9" transform="translate(-1885.112 -543.157)"/>
            <path id="Line_22" d="M0 0h6.604" class="cls-1" data-name="Line 22" transform="translate(24.647 10.265)"/>
            <path id="Rectangle_20" d="M0 0h5.2v3.343H0z" class="cls-1" data-name="Rectangle 20" transform="translate(16.9 6.912)"/>
            <rect id="Rectangle_21" width="9.286" height="4.643" class="cls-1" data-name="Rectangle 21" rx="2.321" transform="translate(15.414 16.263)"/>
            <circle id="Ellipse_5" cx="2.6" cy="2.6" r="2.6" class="cls-1" data-name="Ellipse 5" transform="translate(31.871 16.263)"/>
            <circle id="Ellipse_6" cx="2.6" cy="2.6" r="2.6" class="cls-1" data-name="Ellipse 6" transform="translate(8.914 16.263)"/>
            <circle id="Ellipse_7" cx="2.6" cy="2.6" r="2.6" class="cls-1" data-name="Ellipse 7" transform="translate(1.857 16.263)"/>
        </g>
        <path id="Path_10" d="M1878.7 562.4h2.333l4.083-5.833" class="cls-1" data-name="Path 10" transform="translate(.18 .106)"/>
    </g>
</svg>
